<?xml version="1.0" encoding="UTF-8" standalone="no"?>
<!-- Created with Inkscape (http://www.inkscape.org/) -->

<svg
   xmlns:dc="http://purl.org/dc/elements/1.1/"
   xmlns:cc="http://creativecommons.org/ns#"
   xmlns:rdf="http://www.w3.org/1999/02/22-rdf-syntax-ns#"
   xmlns:svg="http://www.w3.org/2000/svg"
   xmlns="http://www.w3.org/2000/svg"
   xmlns:sodipodi="http://sodipodi.sourceforge.net/DTD/sodipodi-0.dtd"
   xmlns:inkscape="http://www.inkscape.org/namespaces/inkscape"
   width="200"
   height="200"
   viewBox="0 0 52.916665 52.916668"
   version="1.1"
   id="svg8"
   inkscape:version="0.92.4 (5da689c313, 2019-01-14)"
   sodipodi:docname="tie-fighter.svg">
  <defs
     id="defs2" />
  <sodipodi:namedview
     id="base"
     pagecolor="#ffffff"
     bordercolor="#666666"
     borderopacity="1.0"
     inkscape:pageopacity="0.0"
     inkscape:pageshadow="2"
     inkscape:zoom="1.979899"
     inkscape:cx="139.25171"
     inkscape:cy="145.08261"
     inkscape:document-units="mm"
     inkscape:current-layer="layer1"
     showgrid="false"
     units="px"
     inkscape:window-width="1920"
     inkscape:window-height="1017"
     inkscape:window-x="-8"
     inkscape:window-y="-8"
     inkscape:window-maximized="1" />
  <metadata
     id="metadata5">
    <rdf:RDF>
      <cc:Work
         rdf:about="">
        <dc:format>image/svg+xml</dc:format>
        <dc:type
           rdf:resource="http://purl.org/dc/dcmitype/StillImage" />
        <dc:title></dc:title>
      </cc:Work>
    </rdf:RDF>
  </metadata>
  <g
     inkscape:label="Livello 1"
     inkscape:groupmode="layer"
     id="layer1"
     transform="translate(0,-244.08332)">
    <g
       id="layer1-2"
       inkscape:label="Livello 1"
       transform="matrix(0.36035039,0.36035039,-0.36035039,0.36035039,37.550121,196.40514)">
      <path
         inkscape:connector-curvature="0"
         id="rect3724"
         d="m 52.821656,79.118674 -0.935342,4.075721 v 29.492255 h -0.555521 l -1.563212,1.79524 -0.09457,7.08691 1.657782,1.51205 h 0.555521 v 29.69999 l 0.935342,4.07572 0.93586,-4.07572 v -29.71136 l 3.486092,-1.8774 18.470708,1.77922 a 13.229166,13.229166 0 0 0 11.945009,7.57472 13.229166,13.229166 0 0 0 11.978595,-7.65069 l 17.68161,-1.70325 3.48609,1.8774 v 29.71136 l 0.93586,4.07572 0.93535,-4.07572 v -29.69999 h 0.55552 l 1.65778,-1.51205 -0.0946,-7.08691 -1.56321,-1.79524 H 122.6768 V 83.194395 l -0.93535,-4.075721 -0.93586,4.075721 v 29.599745 l -3.47989,1.7818 -17.533296,-2.49339 a 13.229166,13.229166 0 0 0 -12.133109,-7.99486 13.229166,13.229166 0 0 0 -12.089702,7.88117 l -18.332214,2.60708 -3.479893,-1.7818 V 83.194395 Z m 34.50849,30.713366 c 0.57776,0.009 1.155994,0.2275 1.733743,0.62994 l -0.507979,2.83445 c -0.879591,-0.27114 -1.711174,-0.33443 -2.451012,0 l -0.507463,-2.83445 c 0.57776,-0.43767 1.154951,-0.63894 1.732711,-0.62994 z m 3.68608,1.43868 c 0.718018,0.0991 1.268388,0.36554 1.670698,0.78031 0.402309,0.41476 0.65687,0.97759 0.78083,1.6707 l -2.363679,1.64538 c -0.430241,-0.8137 -0.973082,-1.44605 -1.732711,-1.73271 z m -7.371128,5.1e-4 1.644862,2.36317 c -0.759622,0.28666 -1.302491,0.91901 -1.732711,1.73271 l -2.363164,-1.64486 c 0.247941,-1.38621 1.014974,-2.25291 2.451013,-2.45102 z m -3.259749,4.40335 2.834453,0.50746 c -0.334431,0.73985 -0.271151,1.57143 0,2.45102 l -2.834453,0.50798 c -0.804881,-1.15551 -0.87535,-2.31095 0,-3.46646 z m 13.891141,0 c 0.437671,0.57775 0.638937,1.15495 0.629936,1.73271 -0.0088,0.57775 -0.227497,1.156 -0.629936,1.73375 l -2.834452,-0.50798 c 0.27115,-0.87959 0.334431,-1.71117 0,-2.45102 z m -10.719757,3.77393 c 0.286668,0.75962 0.919019,1.30248 1.732708,1.73271 l -1.644343,2.36368 c -1.38621,-0.24794 -2.252903,-1.01549 -2.451013,-2.45153 z m 7.547858,0 2.363163,1.64486 c -0.09906,0.71802 -0.365027,1.26839 -0.779796,1.6707 -0.414771,0.40231 -0.978117,0.65686 -1.671216,0.78083 l -1.644862,-2.36368 c 0.813692,-0.43025 1.446051,-0.97308 1.732711,-1.73271 z m -4.999693,2.07068 c 0.739838,0.33443 1.571421,0.27114 2.451012,0 l 0.507979,2.83393 c -1.155509,0.80488 -2.310934,0.87535 -3.466454,0 z"
         style="fill:#000000;fill-opacity:1;stroke:none;stroke-width:0.26458332" />
    </g>
  </g>
</svg>
